<?xml version="1.0" encoding="utf-8" standalone="no"?>
<!DOCTYPE svg PUBLIC "-//W3C//DTD SVG 1.1//EN"
  "http://www.w3.org/Graphics/SVG/1.1/DTD/svg11.dtd">
<svg xmlns:xlink="http://www.w3.org/1999/xlink" width="460.8pt" height="345.6pt" viewBox="0 0 460.8 345.6" xmlns="http://www.w3.org/2000/svg" version="1.1">
 <metadata>
  <rdf:RDF xmlns:dc="http://purl.org/dc/elements/1.1/" xmlns:cc="http://creativecommons.org/ns#" xmlns:rdf="http://www.w3.org/1999/02/22-rdf-syntax-ns#">
   <cc:Work>
    <dc:type rdf:resource="http://purl.org/dc/dcmitype/StillImage"/>
    <dc:date>2023-03-29T18:44:58.981072</dc:date>
    <dc:format>image/svg+xml</dc:format>
    <dc:creator>
     <cc:Agent>
      <dc:title>Matplotlib v3.5.2, https://matplotlib.org/</dc:title>
     </cc:Agent>
    </dc:creator>
   </cc:Work>
  </rdf:RDF>
 </metadata>
 <defs>
  <style type="text/css">*{stroke-linejoin: round; stroke-linecap: butt}</style>
 </defs>
 <g id="figure_1">
  <g id="patch_1">
   <path d="M 0 345.6 
L 460.8 345.6 
L 460.8 0 
L 0 0 
z
" style="fill: #ffffff"/>
  </g>
  <g id="axes_1">
   <g id="patch_2">
    <path d="M 57.6 307.584 
L 414.72 307.584 
L 414.72 41.472 
L 57.6 41.472 
z
" style="fill: #ffffff"/>
   </g>
   <g id="patch_3">
    <path d="M 92.15056 307.584 
L 95.030749 307.584 
L 95.030749 305.985009 
L 92.15056 305.985009 
z
" clip-path="url(#pec5fcc09ff)" style="fill: #1f77b4; opacity: 0.4"/>
   </g>
   <g id="patch_4">
    <path d="M 95.030749 307.584 
L 97.910937 307.584 
L 97.910937 307.584 
L 95.030749 307.584 
z
" clip-path="url(#pec5fcc09ff)" style="fill: #1f77b4; opacity: 0.4"/>
   </g>
   <g id="patch_5">
    <path d="M 97.910937 307.584 
L 100.791126 307.584 
L 100.791126 307.584 
L 97.910937 307.584 
z
" clip-path="url(#pec5fcc09ff)" style="fill: #1f77b4; opacity: 0.4"/>
   </g>
   <g id="patch_6">
    <path d="M 100.791126 307.584 
L 103.671315 307.584 
L 103.671315 307.584 
L 100.791126 307.584 
z
" clip-path="url(#pec5fcc09ff)" style="fill: #1f77b4; opacity: 0.4"/>
   </g>
   <g id="patch_7">
    <path d="M 103.671315 307.584 
L 106.551504 307.584 
L 106.551504 307.584 
L 103.671315 307.584 
z
" clip-path="url(#pec5fcc09ff)" style="fill: #1f77b4; opacity: 0.4"/>
   </g>
   <g id="patch_8">
    <path d="M 106.551504 307.584 
L 109.431693 307.584 
L 109.431693 305.985009 
L 106.551504 305.985009 
z
" clip-path="url(#pec5fcc09ff)" style="fill: #1f77b4; opacity: 0.4"/>
   </g>
   <g id="patch_9">
    <path d="M 109.431693 307.584 
L 112.311881 307.584 
L 112.311881 307.584 
L 109.431693 307.584 
z
" clip-path="url(#pec5fcc09ff)" style="fill: #1f77b4; opacity: 0.4"/>
   </g>
   <g id="patch_10">
    <path d="M 112.311881 307.584 
L 115.19207 307.584 
L 115.19207 306.784505 
L 112.311881 306.784505 
z
" clip-path="url(#pec5fcc09ff)" style="fill: #1f77b4; opacity: 0.4"/>
   </g>
   <g id="patch_11">
    <path d="M 115.19207 307.584 
L 118.072259 307.584 
L 118.072259 307.584 
L 115.19207 307.584 
z
" clip-path="url(#pec5fcc09ff)" style="fill: #1f77b4; opacity: 0.4"/>
   </g>
   <g id="patch_12">
    <path d="M 118.072259 307.584 
L 120.952448 307.584 
L 120.952448 301.987533 
L 118.072259 301.987533 
z
" clip-path="url(#pec5fcc09ff)" style="fill: #1f77b4; opacity: 0.4"/>
   </g>
   <g id="patch_13">
    <path d="M 120.952448 307.584 
L 123.832637 307.584 
L 123.832637 305.985009 
L 120.952448 305.985009 
z
" clip-path="url(#pec5fcc09ff)" style="fill: #1f77b4; opacity: 0.4"/>
   </g>
   <g id="patch_14">
    <path d="M 123.832637 307.584 
L 126.712825 307.584 
L 126.712825 305.185514 
L 123.832637 305.185514 
z
" clip-path="url(#pec5fcc09ff)" style="fill: #1f77b4; opacity: 0.4"/>
   </g>
   <g id="patch_15">
    <path d="M 126.712825 307.584 
L 129.593014 307.584 
L 129.593014 304.386019 
L 126.712825 304.386019 
z
" clip-path="url(#pec5fcc09ff)" style="fill: #1f77b4; opacity: 0.4"/>
   </g>
   <g id="patch_16">
    <path d="M 129.593014 307.584 
L 132.473203 307.584 
L 132.473203 305.185514 
L 129.593014 305.185514 
z
" clip-path="url(#pec5fcc09ff)" style="fill: #1f77b4; opacity: 0.4"/>
   </g>
   <g id="patch_17">
    <path d="M 132.473203 307.584 
L 135.353392 307.584 
L 135.353392 302.787028 
L 132.473203 302.787028 
z
" clip-path="url(#pec5fcc09ff)" style="fill: #1f77b4; opacity: 0.4"/>
   </g>
   <g id="patch_18">
    <path d="M 135.353392 307.584 
L 138.233581 307.584 
L 138.233581 305.185514 
L 135.353392 305.185514 
z
" clip-path="url(#pec5fcc09ff)" style="fill: #1f77b4; opacity: 0.4"/>
   </g>
   <g id="patch_19">
    <path d="M 138.233581 307.584 
L 141.113769 307.584 
L 141.113769 302.787028 
L 138.233581 302.787028 
z
" clip-path="url(#pec5fcc09ff)" style="fill: #1f77b4; opacity: 0.4"/>
   </g>
   <g id="patch_20">
    <path d="M 141.113769 307.584 
L 143.993958 307.584 
L 143.993958 301.987533 
L 141.113769 301.987533 
z
" clip-path="url(#pec5fcc09ff)" style="fill: #1f77b4; opacity: 0.4"/>
   </g>
   <g id="patch_21">
    <path d="M 143.993958 307.584 
L 146.874147 307.584 
L 146.874147 301.987533 
L 143.993958 301.987533 
z
" clip-path="url(#pec5fcc09ff)" style="fill: #1f77b4; opacity: 0.4"/>
   </g>
   <g id="patch_22">
    <path d="M 146.874147 307.584 
L 149.754336 307.584 
L 149.754336 299.589047 
L 146.874147 299.589047 
z
" clip-path="url(#pec5fcc09ff)" style="fill: #1f77b4; opacity: 0.4"/>
   </g>
   <g id="patch_23">
    <path d="M 149.754336 307.584 
L 152.634525 307.584 
L 152.634525 292.39359 
L 149.754336 292.39359 
z
" clip-path="url(#pec5fcc09ff)" style="fill: #1f77b4; opacity: 0.4"/>
   </g>
   <g id="patch_24">
    <path d="M 152.634525 307.584 
L 155.514713 307.584 
L 155.514713 293.99258 
L 152.634525 293.99258 
z
" clip-path="url(#pec5fcc09ff)" style="fill: #1f77b4; opacity: 0.4"/>
   </g>
   <g id="patch_25">
    <path d="M 155.514713 307.584 
L 158.394902 307.584 
L 158.394902 289.195609 
L 155.514713 289.195609 
z
" clip-path="url(#pec5fcc09ff)" style="fill: #1f77b4; opacity: 0.4"/>
   </g>
   <g id="patch_26">
    <path d="M 158.394902 307.584 
L 161.275091 307.584 
L 161.275091 286.797123 
L 158.394902 286.797123 
z
" clip-path="url(#pec5fcc09ff)" style="fill: #1f77b4; opacity: 0.4"/>
   </g>
   <g id="patch_27">
    <path d="M 161.275091 307.584 
L 164.15528 307.584 
L 164.15528 285.198132 
L 161.275091 285.198132 
z
" clip-path="url(#pec5fcc09ff)" style="fill: #1f77b4; opacity: 0.4"/>
   </g>
   <g id="patch_28">
    <path d="M 164.15528 307.584 
L 167.035469 307.584 
L 167.035469 275.604189 
L 164.15528 275.604189 
z
" clip-path="url(#pec5fcc09ff)" style="fill: #1f77b4; opacity: 0.4"/>
   </g>
   <g id="patch_29">
    <path d="M 167.035469 307.584 
L 169.915658 307.584 
L 169.915658 278.002675 
L 167.035469 278.002675 
z
" clip-path="url(#pec5fcc09ff)" style="fill: #1f77b4; opacity: 0.4"/>
   </g>
   <g id="patch_30">
    <path d="M 169.915658 307.584 
L 172.795846 307.584 
L 172.795846 270.007722 
L 169.915658 270.007722 
z
" clip-path="url(#pec5fcc09ff)" style="fill: #1f77b4; opacity: 0.4"/>
   </g>
   <g id="patch_31">
    <path d="M 172.795846 307.584 
L 175.676035 307.584 
L 175.676035 264.411256 
L 172.795846 264.411256 
z
" clip-path="url(#pec5fcc09ff)" style="fill: #1f77b4; opacity: 0.4"/>
   </g>
   <g id="patch_32">
    <path d="M 175.676035 307.584 
L 178.556224 307.584 
L 178.556224 259.614284 
L 175.676035 259.614284 
z
" clip-path="url(#pec5fcc09ff)" style="fill: #1f77b4; opacity: 0.4"/>
   </g>
   <g id="patch_33">
    <path d="M 178.556224 307.584 
L 181.436413 307.584 
L 181.436413 242.025388 
L 178.556224 242.025388 
z
" clip-path="url(#pec5fcc09ff)" style="fill: #1f77b4; opacity: 0.4"/>
   </g>
   <g id="patch_34">
    <path d="M 181.436413 307.584 
L 184.316602 307.584 
L 184.316602 246.022864 
L 181.436413 246.022864 
z
" clip-path="url(#pec5fcc09ff)" style="fill: #1f77b4; opacity: 0.4"/>
   </g>
   <g id="patch_35">
    <path d="M 184.316602 307.584 
L 187.19679 307.584 
L 187.19679 238.827407 
L 184.316602 238.827407 
z
" clip-path="url(#pec5fcc09ff)" style="fill: #1f77b4; opacity: 0.4"/>
   </g>
   <g id="patch_36">
    <path d="M 187.19679 307.584 
L 190.076979 307.584 
L 190.076979 235.629426 
L 187.19679 235.629426 
z
" clip-path="url(#pec5fcc09ff)" style="fill: #1f77b4; opacity: 0.4"/>
   </g>
   <g id="patch_37">
    <path d="M 190.076979 307.584 
L 192.957168 307.584 
L 192.957168 212.444063 
L 190.076979 212.444063 
z
" clip-path="url(#pec5fcc09ff)" style="fill: #1f77b4; opacity: 0.4"/>
   </g>
   <g id="patch_38">
    <path d="M 192.957168 307.584 
L 195.837357 307.584 
L 195.837357 205.248606 
L 192.957168 205.248606 
z
" clip-path="url(#pec5fcc09ff)" style="fill: #1f77b4; opacity: 0.4"/>
   </g>
   <g id="patch_39">
    <path d="M 195.837357 307.584 
L 198.717546 307.584 
L 198.717546 204.44911 
L 195.837357 204.44911 
z
" clip-path="url(#pec5fcc09ff)" style="fill: #1f77b4; opacity: 0.4"/>
   </g>
   <g id="patch_40">
    <path d="M 198.717546 307.584 
L 201.597734 307.584 
L 201.597734 182.063243 
L 198.717546 182.063243 
z
" clip-path="url(#pec5fcc09ff)" style="fill: #1f77b4; opacity: 0.4"/>
   </g>
   <g id="patch_41">
    <path d="M 201.597734 307.584 
L 204.477923 307.584 
L 204.477923 174.06829 
L 201.597734 174.06829 
z
" clip-path="url(#pec5fcc09ff)" style="fill: #1f77b4; opacity: 0.4"/>
   </g>
   <g id="patch_42">
    <path d="M 204.477923 307.584 
L 207.358112 307.584 
L 207.358112 169.271319 
L 204.477923 169.271319 
z
" clip-path="url(#pec5fcc09ff)" style="fill: #1f77b4; opacity: 0.4"/>
   </g>
   <g id="patch_43">
    <path d="M 207.358112 307.584 
L 210.238301 307.584 
L 210.238301 166.073338 
L 207.358112 166.073338 
z
" clip-path="url(#pec5fcc09ff)" style="fill: #1f77b4; opacity: 0.4"/>
   </g>
   <g id="patch_44">
    <path d="M 210.238301 307.584 
L 213.11849 307.584 
L 213.11849 170.070814 
L 210.238301 170.070814 
z
" clip-path="url(#pec5fcc09ff)" style="fill: #1f77b4; opacity: 0.4"/>
   </g>
   <g id="patch_45">
    <path d="M 213.11849 307.584 
L 215.998678 307.584 
L 215.998678 126.098574 
L 213.11849 126.098574 
z
" clip-path="url(#pec5fcc09ff)" style="fill: #1f77b4; opacity: 0.4"/>
   </g>
   <g id="patch_46">
    <path d="M 215.998678 307.584 
L 218.878867 307.584 
L 218.878867 104.512202 
L 215.998678 104.512202 
z
" clip-path="url(#pec5fcc09ff)" style="fill: #1f77b4; opacity: 0.4"/>
   </g>
   <g id="patch_47">
    <path d="M 218.878867 307.584 
L 221.759056 307.584 
L 221.759056 89.321792 
L 218.878867 89.321792 
z
" clip-path="url(#pec5fcc09ff)" style="fill: #1f77b4; opacity: 0.4"/>
   </g>
   <g id="patch_48">
    <path d="M 221.759056 307.584 
L 224.639245 307.584 
L 224.639245 82.92583 
L 221.759056 82.92583 
z
" clip-path="url(#pec5fcc09ff)" style="fill: #1f77b4; opacity: 0.4"/>
   </g>
   <g id="patch_49">
    <path d="M 224.639245 307.584 
L 227.519434 307.584 
L 227.519434 95.717754 
L 224.639245 95.717754 
z
" clip-path="url(#pec5fcc09ff)" style="fill: #1f77b4; opacity: 0.4"/>
   </g>
   <g id="patch_50">
    <path d="M 227.519434 307.584 
L 230.399622 307.584 
L 230.399622 88.522297 
L 227.519434 88.522297 
z
" clip-path="url(#pec5fcc09ff)" style="fill: #1f77b4; opacity: 0.4"/>
   </g>
   <g id="patch_51">
    <path d="M 230.399622 307.584 
L 233.279811 307.584 
L 233.279811 74.131382 
L 230.399622 74.131382 
z
" clip-path="url(#pec5fcc09ff)" style="fill: #1f77b4; opacity: 0.4"/>
   </g>
   <g id="patch_52">
    <path d="M 233.279811 307.584 
L 236.16 307.584 
L 236.16 54.144 
L 233.279811 54.144 
z
" clip-path="url(#pec5fcc09ff)" style="fill: #1f77b4; opacity: 0.4"/>
   </g>
   <g id="patch_53">
    <path d="M 236.16 307.584 
L 239.040189 307.584 
L 239.040189 74.131382 
L 236.16 74.131382 
z
" clip-path="url(#pec5fcc09ff)" style="fill: #1f77b4; opacity: 0.4"/>
   </g>
   <g id="patch_54">
    <path d="M 239.040189 307.584 
L 241.920378 307.584 
L 241.920378 86.123811 
L 239.040189 86.123811 
z
" clip-path="url(#pec5fcc09ff)" style="fill: #1f77b4; opacity: 0.4"/>
   </g>
   <g id="patch_55">
    <path d="M 241.920378 307.584 
L 244.800566 307.584 
L 244.800566 76.529868 
L 241.920378 76.529868 
z
" clip-path="url(#pec5fcc09ff)" style="fill: #1f77b4; opacity: 0.4"/>
   </g>
   <g id="patch_56">
    <path d="M 244.800566 307.584 
L 247.680755 307.584 
L 247.680755 65.336934 
L 244.800566 65.336934 
z
" clip-path="url(#pec5fcc09ff)" style="fill: #1f77b4; opacity: 0.4"/>
   </g>
   <g id="patch_57">
    <path d="M 247.680755 307.584 
L 250.560944 307.584 
L 250.560944 80.527344 
L 247.680755 80.527344 
z
" clip-path="url(#pec5fcc09ff)" style="fill: #1f77b4; opacity: 0.4"/>
   </g>
   <g id="patch_58">
    <path d="M 250.560944 307.584 
L 253.441133 307.584 
L 253.441133 67.73542 
L 250.560944 67.73542 
z
" clip-path="url(#pec5fcc09ff)" style="fill: #1f77b4; opacity: 0.4"/>
   </g>
   <g id="patch_59">
    <path d="M 253.441133 307.584 
L 256.321322 307.584 
L 256.321322 82.92583 
L 253.441133 82.92583 
z
" clip-path="url(#pec5fcc09ff)" style="fill: #1f77b4; opacity: 0.4"/>
   </g>
   <g id="patch_60">
    <path d="M 256.321322 307.584 
L 259.20151 307.584 
L 259.20151 93.319268 
L 256.321322 93.319268 
z
" clip-path="url(#pec5fcc09ff)" style="fill: #1f77b4; opacity: 0.4"/>
   </g>
   <g id="patch_61">
    <path d="M 259.20151 307.584 
L 262.081699 307.584 
L 262.081699 82.126334 
L 259.20151 82.126334 
z
" clip-path="url(#pec5fcc09ff)" style="fill: #1f77b4; opacity: 0.4"/>
   </g>
   <g id="patch_62">
    <path d="M 262.081699 307.584 
L 264.961888 307.584 
L 264.961888 86.923306 
L 262.081699 86.923306 
z
" clip-path="url(#pec5fcc09ff)" style="fill: #1f77b4; opacity: 0.4"/>
   </g>
   <g id="patch_63">
    <path d="M 264.961888 307.584 
L 267.842077 307.584 
L 267.842077 101.314221 
L 264.961888 101.314221 
z
" clip-path="url(#pec5fcc09ff)" style="fill: #1f77b4; opacity: 0.4"/>
   </g>
   <g id="patch_64">
    <path d="M 267.842077 307.584 
L 270.722266 307.584 
L 270.722266 149.283937 
L 267.842077 149.283937 
z
" clip-path="url(#pec5fcc09ff)" style="fill: #1f77b4; opacity: 0.4"/>
   </g>
   <g id="patch_65">
    <path d="M 270.722266 307.584 
L 273.602454 307.584 
L 273.602454 128.49706 
L 270.722266 128.49706 
z
" clip-path="url(#pec5fcc09ff)" style="fill: #1f77b4; opacity: 0.4"/>
   </g>
   <g id="patch_66">
    <path d="M 273.602454 307.584 
L 276.482643 307.584 
L 276.482643 133.294032 
L 273.602454 133.294032 
z
" clip-path="url(#pec5fcc09ff)" style="fill: #1f77b4; opacity: 0.4"/>
   </g>
   <g id="patch_67">
    <path d="M 276.482643 307.584 
L 279.362832 307.584 
L 279.362832 143.68747 
L 276.482643 143.68747 
z
" clip-path="url(#pec5fcc09ff)" style="fill: #1f77b4; opacity: 0.4"/>
   </g>
   <g id="patch_68">
    <path d="M 279.362832 307.584 
L 282.243021 307.584 
L 282.243021 151.682423 
L 279.362832 151.682423 
z
" clip-path="url(#pec5fcc09ff)" style="fill: #1f77b4; opacity: 0.4"/>
   </g>
   <g id="patch_69">
    <path d="M 282.243021 307.584 
L 285.12321 307.584 
L 285.12321 152.481918 
L 282.243021 152.481918 
z
" clip-path="url(#pec5fcc09ff)" style="fill: #1f77b4; opacity: 0.4"/>
   </g>
   <g id="patch_70">
    <path d="M 285.12321 307.584 
L 288.003398 307.584 
L 288.003398 182.063243 
L 285.12321 182.063243 
z
" clip-path="url(#pec5fcc09ff)" style="fill: #1f77b4; opacity: 0.4"/>
   </g>
   <g id="patch_71">
    <path d="M 288.003398 307.584 
L 290.883587 307.584 
L 290.883587 183.662233 
L 288.003398 183.662233 
z
" clip-path="url(#pec5fcc09ff)" style="fill: #1f77b4; opacity: 0.4"/>
   </g>
   <g id="patch_72">
    <path d="M 290.883587 307.584 
L 293.763776 307.584 
L 293.763776 181.263748 
L 290.883587 181.263748 
z
" clip-path="url(#pec5fcc09ff)" style="fill: #1f77b4; opacity: 0.4"/>
   </g>
   <g id="patch_73">
    <path d="M 293.763776 307.584 
L 296.643965 307.584 
L 296.643965 206.048101 
L 293.763776 206.048101 
z
" clip-path="url(#pec5fcc09ff)" style="fill: #1f77b4; opacity: 0.4"/>
   </g>
   <g id="patch_74">
    <path d="M 296.643965 307.584 
L 299.524154 307.584 
L 299.524154 221.238511 
L 296.643965 221.238511 
z
" clip-path="url(#pec5fcc09ff)" style="fill: #1f77b4; opacity: 0.4"/>
   </g>
   <g id="patch_75">
    <path d="M 299.524154 307.584 
L 302.404342 307.584 
L 302.404342 210.845073 
L 299.524154 210.845073 
z
" clip-path="url(#pec5fcc09ff)" style="fill: #1f77b4; opacity: 0.4"/>
   </g>
   <g id="patch_76">
    <path d="M 302.404342 307.584 
L 305.284531 307.584 
L 305.284531 220.439016 
L 302.404342 220.439016 
z
" clip-path="url(#pec5fcc09ff)" style="fill: #1f77b4; opacity: 0.4"/>
   </g>
   <g id="patch_77">
    <path d="M 305.284531 307.584 
L 308.16472 307.584 
L 308.16472 235.629426 
L 305.284531 235.629426 
z
" clip-path="url(#pec5fcc09ff)" style="fill: #1f77b4; opacity: 0.4"/>
   </g>
   <g id="patch_78">
    <path d="M 308.16472 307.584 
L 311.044909 307.584 
L 311.044909 253.218322 
L 308.16472 253.218322 
z
" clip-path="url(#pec5fcc09ff)" style="fill: #1f77b4; opacity: 0.4"/>
   </g>
   <g id="patch_79">
    <path d="M 311.044909 307.584 
L 313.925098 307.584 
L 313.925098 268.408732 
L 311.044909 268.408732 
z
" clip-path="url(#pec5fcc09ff)" style="fill: #1f77b4; opacity: 0.4"/>
   </g>
   <g id="patch_80">
    <path d="M 313.925098 307.584 
L 316.805287 307.584 
L 316.805287 263.61176 
L 313.925098 263.61176 
z
" clip-path="url(#pec5fcc09ff)" style="fill: #1f77b4; opacity: 0.4"/>
   </g>
   <g id="patch_81">
    <path d="M 316.805287 307.584 
L 319.685475 307.584 
L 319.685475 274.005199 
L 316.805287 274.005199 
z
" clip-path="url(#pec5fcc09ff)" style="fill: #1f77b4; opacity: 0.4"/>
   </g>
   <g id="patch_82">
    <path d="M 319.685475 307.584 
L 322.565664 307.584 
L 322.565664 277.20318 
L 319.685475 277.20318 
z
" clip-path="url(#pec5fcc09ff)" style="fill: #1f77b4; opacity: 0.4"/>
   </g>
   <g id="patch_83">
    <path d="M 322.565664 307.584 
L 325.445853 307.584 
L 325.445853 282.799647 
L 322.565664 282.799647 
z
" clip-path="url(#pec5fcc09ff)" style="fill: #1f77b4; opacity: 0.4"/>
   </g>
   <g id="patch_84">
    <path d="M 325.445853 307.584 
L 328.326042 307.584 
L 328.326042 287.596618 
L 325.445853 287.596618 
z
" clip-path="url(#pec5fcc09ff)" style="fill: #1f77b4; opacity: 0.4"/>
   </g>
   <g id="patch_85">
    <path d="M 328.326042 307.584 
L 331.206231 307.584 
L 331.206231 283.599142 
L 328.326042 283.599142 
z
" clip-path="url(#pec5fcc09ff)" style="fill: #1f77b4; opacity: 0.4"/>
   </g>
   <g id="patch_86">
    <path d="M 331.206231 307.584 
L 334.086419 307.584 
L 334.086419 288.396114 
L 331.206231 288.396114 
z
" clip-path="url(#pec5fcc09ff)" style="fill: #1f77b4; opacity: 0.4"/>
   </g>
   <g id="patch_87">
    <path d="M 334.086419 307.584 
L 336.966608 307.584 
L 336.966608 292.39359 
L 334.086419 292.39359 
z
" clip-path="url(#pec5fcc09ff)" style="fill: #1f77b4; opacity: 0.4"/>
   </g>
   <g id="patch_88">
    <path d="M 336.966608 307.584 
L 339.846797 307.584 
L 339.846797 295.591571 
L 336.966608 295.591571 
z
" clip-path="url(#pec5fcc09ff)" style="fill: #1f77b4; opacity: 0.4"/>
   </g>
   <g id="patch_89">
    <path d="M 339.846797 307.584 
L 342.726986 307.584 
L 342.726986 296.391066 
L 339.846797 296.391066 
z
" clip-path="url(#pec5fcc09ff)" style="fill: #1f77b4; opacity: 0.4"/>
   </g>
   <g id="patch_90">
    <path d="M 342.726986 307.584 
L 345.607175 307.584 
L 345.607175 294.792076 
L 342.726986 294.792076 
z
" clip-path="url(#pec5fcc09ff)" style="fill: #1f77b4; opacity: 0.4"/>
   </g>
   <g id="patch_91">
    <path d="M 345.607175 307.584 
L 348.487363 307.584 
L 348.487363 299.589047 
L 345.607175 299.589047 
z
" clip-path="url(#pec5fcc09ff)" style="fill: #1f77b4; opacity: 0.4"/>
   </g>
   <g id="patch_92">
    <path d="M 348.487363 307.584 
L 351.367552 307.584 
L 351.367552 298.789552 
L 348.487363 298.789552 
z
" clip-path="url(#pec5fcc09ff)" style="fill: #1f77b4; opacity: 0.4"/>
   </g>
   <g id="patch_93">
    <path d="M 351.367552 307.584 
L 354.247741 307.584 
L 354.247741 303.586524 
L 351.367552 303.586524 
z
" clip-path="url(#pec5fcc09ff)" style="fill: #1f77b4; opacity: 0.4"/>
   </g>
   <g id="patch_94">
    <path d="M 354.247741 307.584 
L 357.12793 307.584 
L 357.12793 302.787028 
L 354.247741 302.787028 
z
" clip-path="url(#pec5fcc09ff)" style="fill: #1f77b4; opacity: 0.4"/>
   </g>
   <g id="patch_95">
    <path d="M 357.12793 307.584 
L 360.008119 307.584 
L 360.008119 305.185514 
L 357.12793 305.185514 
z
" clip-path="url(#pec5fcc09ff)" style="fill: #1f77b4; opacity: 0.4"/>
   </g>
   <g id="patch_96">
    <path d="M 360.008119 307.584 
L 362.888307 307.584 
L 362.888307 301.987533 
L 360.008119 301.987533 
z
" clip-path="url(#pec5fcc09ff)" style="fill: #1f77b4; opacity: 0.4"/>
   </g>
   <g id="patch_97">
    <path d="M 362.888307 307.584 
L 365.768496 307.584 
L 365.768496 305.185514 
L 362.888307 305.185514 
z
" clip-path="url(#pec5fcc09ff)" style="fill: #1f77b4; opacity: 0.4"/>
   </g>
   <g id="patch_98">
    <path d="M 365.768496 307.584 
L 368.648685 307.584 
L 368.648685 305.985009 
L 365.768496 305.985009 
z
" clip-path="url(#pec5fcc09ff)" style="fill: #1f77b4; opacity: 0.4"/>
   </g>
   <g id="patch_99">
    <path d="M 368.648685 307.584 
L 371.528874 307.584 
L 371.528874 305.985009 
L 368.648685 305.985009 
z
" clip-path="url(#pec5fcc09ff)" style="fill: #1f77b4; opacity: 0.4"/>
   </g>
   <g id="patch_100">
    <path d="M 371.528874 307.584 
L 374.409063 307.584 
L 374.409063 307.584 
L 371.528874 307.584 
z
" clip-path="url(#pec5fcc09ff)" style="fill: #1f77b4; opacity: 0.4"/>
   </g>
   <g id="patch_101">
    <path d="M 374.409063 307.584 
L 377.289251 307.584 
L 377.289251 306.784505 
L 374.409063 306.784505 
z
" clip-path="url(#pec5fcc09ff)" style="fill: #1f77b4; opacity: 0.4"/>
   </g>
   <g id="patch_102">
    <path d="M 377.289251 307.584 
L 380.16944 307.584 
L 380.16944 306.784505 
L 377.289251 306.784505 
z
" clip-path="url(#pec5fcc09ff)" style="fill: #1f77b4; opacity: 0.4"/>
   </g>
   <g id="matplotlib.axis_1">
    <g id="xtick_1">
     <g id="line2d_1">
      <defs>
       <path id="m8e477ae64e" d="M 0 0 
L 0 3.5 
" style="stroke: #000000; stroke-width: 0.8"/>
      </defs>
      <g>
       <use xlink:href="#m8e477ae64e" x="90.96021" y="307.584" style="stroke: #000000; stroke-width: 0.8"/>
      </g>
     </g>
     <g id="text_1">
      <!-- −4 -->
      <g transform="translate(83.589116 322.182437)scale(0.1 -0.1)">
       <defs>
        <path id="DejaVuSans-2212" d="M 678 2272 
L 4684 2272 
L 4684 1741 
L 678 1741 
L 678 2272 
z
" transform="scale(0.015625)"/>
        <path id="DejaVuSans-34" d="M 2419 4116 
L 825 1625 
L 2419 1625 
L 2419 4116 
z
M 2253 4666 
L 3047 4666 
L 3047 1625 
L 3713 1625 
L 3713 1100 
L 3047 1100 
L 3047 0 
L 2419 0 
L 2419 1100 
L 313 1100 
L 313 1709 
L 2253 4666 
z
" transform="scale(0.015625)"/>
       </defs>
       <use xlink:href="#DejaVuSans-2212"/>
       <use xlink:href="#DejaVuSans-34" x="83.789062"/>
      </g>
     </g>
    </g>
    <g id="xtick_2">
     <g id="line2d_2">
      <g>
       <use xlink:href="#m8e477ae64e" x="168.176317" y="307.584" style="stroke: #000000; stroke-width: 0.8"/>
      </g>
     </g>
     <g id="text_2">
      <!-- −2 -->
      <g transform="translate(160.805223 322.182437)scale(0.1 -0.1)">
       <defs>
        <path id="DejaVuSans-32" d="M 1228 531 
L 3431 531 
L 3431 0 
L 469 0 
L 469 531 
Q 828 903 1448 1529 
Q 2069 2156 2228 2338 
Q 2531 2678 2651 2914 
Q 2772 3150 2772 3378 
Q 2772 3750 2511 3984 
Q 2250 4219 1831 4219 
Q 1534 4219 1204 4116 
Q 875 4013 500 3803 
L 500 4441 
Q 881 4594 1212 4672 
Q 1544 4750 1819 4750 
Q 2544 4750 2975 4387 
Q 3406 4025 3406 3419 
Q 3406 3131 3298 2873 
Q 3191 2616 2906 2266 
Q 2828 2175 2409 1742 
Q 1991 1309 1228 531 
z
" transform="scale(0.015625)"/>
       </defs>
       <use xlink:href="#DejaVuSans-2212"/>
       <use xlink:href="#DejaVuSans-32" x="83.789062"/>
      </g>
     </g>
    </g>
    <g id="xtick_3">
     <g id="line2d_3">
      <g>
       <use xlink:href="#m8e477ae64e" x="245.392424" y="307.584" style="stroke: #000000; stroke-width: 0.8"/>
      </g>
     </g>
     <g id="text_3">
      <!-- 0 -->
      <g transform="translate(242.211174 322.182437)scale(0.1 -0.1)">
       <defs>
        <path id="DejaVuSans-30" d="M 2034 4250 
Q 1547 4250 1301 3770 
Q 1056 3291 1056 2328 
Q 1056 1369 1301 889 
Q 1547 409 2034 409 
Q 2525 409 2770 889 
Q 3016 1369 3016 2328 
Q 3016 3291 2770 3770 
Q 2525 4250 2034 4250 
z
M 2034 4750 
Q 2819 4750 3233 4129 
Q 3647 3509 3647 2328 
Q 3647 1150 3233 529 
Q 2819 -91 2034 -91 
Q 1250 -91 836 529 
Q 422 1150 422 2328 
Q 422 3509 836 4129 
Q 1250 4750 2034 4750 
z
" transform="scale(0.015625)"/>
       </defs>
       <use xlink:href="#DejaVuSans-30"/>
      </g>
     </g>
    </g>
    <g id="xtick_4">
     <g id="line2d_4">
      <g>
       <use xlink:href="#m8e477ae64e" x="322.60853" y="307.584" style="stroke: #000000; stroke-width: 0.8"/>
      </g>
     </g>
     <g id="text_4">
      <!-- 2 -->
      <g transform="translate(319.42728 322.182437)scale(0.1 -0.1)">
       <use xlink:href="#DejaVuSans-32"/>
      </g>
     </g>
    </g>
    <g id="xtick_5">
     <g id="line2d_5">
      <g>
       <use xlink:href="#m8e477ae64e" x="399.824637" y="307.584" style="stroke: #000000; stroke-width: 0.8"/>
      </g>
     </g>
     <g id="text_5">
      <!-- 4 -->
      <g transform="translate(396.643387 322.182437)scale(0.1 -0.1)">
       <use xlink:href="#DejaVuSans-34"/>
      </g>
     </g>
    </g>
   </g>
   <g id="matplotlib.axis_2">
    <g id="ytick_1">
     <g id="line2d_6">
      <defs>
       <path id="mac08285ee6" d="M 0 0 
L -3.5 0 
" style="stroke: #000000; stroke-width: 0.8"/>
      </defs>
      <g>
       <use xlink:href="#mac08285ee6" x="57.6" y="307.584" style="stroke: #000000; stroke-width: 0.8"/>
      </g>
     </g>
     <g id="text_6">
      <!-- 0.00 -->
      <g transform="translate(28.334375 311.383219)scale(0.1 -0.1)">
       <defs>
        <path id="DejaVuSans-2e" d="M 684 794 
L 1344 794 
L 1344 0 
L 684 0 
L 684 794 
z
" transform="scale(0.015625)"/>
       </defs>
       <use xlink:href="#DejaVuSans-30"/>
       <use xlink:href="#DejaVuSans-2e" x="63.623047"/>
       <use xlink:href="#DejaVuSans-30" x="95.410156"/>
       <use xlink:href="#DejaVuSans-30" x="159.033203"/>
      </g>
     </g>
    </g>
    <g id="ytick_2">
     <g id="line2d_7">
      <g>
       <use xlink:href="#mac08285ee6" x="57.6" y="277.762536" style="stroke: #000000; stroke-width: 0.8"/>
      </g>
     </g>
     <g id="text_7">
      <!-- 0.05 -->
      <g transform="translate(28.334375 281.561755)scale(0.1 -0.1)">
       <defs>
        <path id="DejaVuSans-35" d="M 691 4666 
L 3169 4666 
L 3169 4134 
L 1269 4134 
L 1269 2991 
Q 1406 3038 1543 3061 
Q 1681 3084 1819 3084 
Q 2600 3084 3056 2656 
Q 3513 2228 3513 1497 
Q 3513 744 3044 326 
Q 2575 -91 1722 -91 
Q 1428 -91 1123 -41 
Q 819 9 494 109 
L 494 744 
Q 775 591 1075 516 
Q 1375 441 1709 441 
Q 2250 441 2565 725 
Q 2881 1009 2881 1497 
Q 2881 1984 2565 2268 
Q 2250 2553 1709 2553 
Q 1456 2553 1204 2497 
Q 953 2441 691 2322 
L 691 4666 
z
" transform="scale(0.015625)"/>
       </defs>
       <use xlink:href="#DejaVuSans-30"/>
       <use xlink:href="#DejaVuSans-2e" x="63.623047"/>
       <use xlink:href="#DejaVuSans-30" x="95.410156"/>
       <use xlink:href="#DejaVuSans-35" x="159.033203"/>
      </g>
     </g>
    </g>
    <g id="ytick_3">
     <g id="line2d_8">
      <g>
       <use xlink:href="#mac08285ee6" x="57.6" y="247.941073" style="stroke: #000000; stroke-width: 0.8"/>
      </g>
     </g>
     <g id="text_8">
      <!-- 0.10 -->
      <g transform="translate(28.334375 251.740291)scale(0.1 -0.1)">
       <defs>
        <path id="DejaVuSans-31" d="M 794 531 
L 1825 531 
L 1825 4091 
L 703 3866 
L 703 4441 
L 1819 4666 
L 2450 4666 
L 2450 531 
L 3481 531 
L 3481 0 
L 794 0 
L 794 531 
z
" transform="scale(0.015625)"/>
       </defs>
       <use xlink:href="#DejaVuSans-30"/>
       <use xlink:href="#DejaVuSans-2e" x="63.623047"/>
       <use xlink:href="#DejaVuSans-31" x="95.410156"/>
       <use xlink:href="#DejaVuSans-30" x="159.033203"/>
      </g>
     </g>
    </g>
    <g id="ytick_4">
     <g id="line2d_9">
      <g>
       <use xlink:href="#mac08285ee6" x="57.6" y="218.119609" style="stroke: #000000; stroke-width: 0.8"/>
      </g>
     </g>
     <g id="text_9">
      <!-- 0.15 -->
      <g transform="translate(28.334375 221.918828)scale(0.1 -0.1)">
       <use xlink:href="#DejaVuSans-30"/>
       <use xlink:href="#DejaVuSans-2e" x="63.623047"/>
       <use xlink:href="#DejaVuSans-31" x="95.410156"/>
       <use xlink:href="#DejaVuSans-35" x="159.033203"/>
      </g>
     </g>
    </g>
    <g id="ytick_5">
     <g id="line2d_10">
      <g>
       <use xlink:href="#mac08285ee6" x="57.6" y="188.298145" style="stroke: #000000; stroke-width: 0.8"/>
      </g>
     </g>
     <g id="text_10">
      <!-- 0.20 -->
      <g transform="translate(28.334375 192.097364)scale(0.1 -0.1)">
       <use xlink:href="#DejaVuSans-30"/>
       <use xlink:href="#DejaVuSans-2e" x="63.623047"/>
       <use xlink:href="#DejaVuSans-32" x="95.410156"/>
       <use xlink:href="#DejaVuSans-30" x="159.033203"/>
      </g>
     </g>
    </g>
    <g id="ytick_6">
     <g id="line2d_11">
      <g>
       <use xlink:href="#mac08285ee6" x="57.6" y="158.476682" style="stroke: #000000; stroke-width: 0.8"/>
      </g>
     </g>
     <g id="text_11">
      <!-- 0.25 -->
      <g transform="translate(28.334375 162.275901)scale(0.1 -0.1)">
       <use xlink:href="#DejaVuSans-30"/>
       <use xlink:href="#DejaVuSans-2e" x="63.623047"/>
       <use xlink:href="#DejaVuSans-32" x="95.410156"/>
       <use xlink:href="#DejaVuSans-35" x="159.033203"/>
      </g>
     </g>
    </g>
    <g id="ytick_7">
     <g id="line2d_12">
      <g>
       <use xlink:href="#mac08285ee6" x="57.6" y="128.655218" style="stroke: #000000; stroke-width: 0.8"/>
      </g>
     </g>
     <g id="text_12">
      <!-- 0.30 -->
      <g transform="translate(28.334375 132.454437)scale(0.1 -0.1)">
       <defs>
        <path id="DejaVuSans-33" d="M 2597 2516 
Q 3050 2419 3304 2112 
Q 3559 1806 3559 1356 
Q 3559 666 3084 287 
Q 2609 -91 1734 -91 
Q 1441 -91 1130 -33 
Q 819 25 488 141 
L 488 750 
Q 750 597 1062 519 
Q 1375 441 1716 441 
Q 2309 441 2620 675 
Q 2931 909 2931 1356 
Q 2931 1769 2642 2001 
Q 2353 2234 1838 2234 
L 1294 2234 
L 1294 2753 
L 1863 2753 
Q 2328 2753 2575 2939 
Q 2822 3125 2822 3475 
Q 2822 3834 2567 4026 
Q 2313 4219 1838 4219 
Q 1578 4219 1281 4162 
Q 984 4106 628 3988 
L 628 4550 
Q 988 4650 1302 4700 
Q 1616 4750 1894 4750 
Q 2613 4750 3031 4423 
Q 3450 4097 3450 3541 
Q 3450 3153 3228 2886 
Q 3006 2619 2597 2516 
z
" transform="scale(0.015625)"/>
       </defs>
       <use xlink:href="#DejaVuSans-30"/>
       <use xlink:href="#DejaVuSans-2e" x="63.623047"/>
       <use xlink:href="#DejaVuSans-33" x="95.410156"/>
       <use xlink:href="#DejaVuSans-30" x="159.033203"/>
      </g>
     </g>
    </g>
    <g id="ytick_8">
     <g id="line2d_13">
      <g>
       <use xlink:href="#mac08285ee6" x="57.6" y="98.833755" style="stroke: #000000; stroke-width: 0.8"/>
      </g>
     </g>
     <g id="text_13">
      <!-- 0.35 -->
      <g transform="translate(28.334375 102.632973)scale(0.1 -0.1)">
       <use xlink:href="#DejaVuSans-30"/>
       <use xlink:href="#DejaVuSans-2e" x="63.623047"/>
       <use xlink:href="#DejaVuSans-33" x="95.410156"/>
       <use xlink:href="#DejaVuSans-35" x="159.033203"/>
      </g>
     </g>
    </g>
    <g id="ytick_9">
     <g id="line2d_14">
      <g>
       <use xlink:href="#mac08285ee6" x="57.6" y="69.012291" style="stroke: #000000; stroke-width: 0.8"/>
      </g>
     </g>
     <g id="text_14">
      <!-- 0.40 -->
      <g transform="translate(28.334375 72.81151)scale(0.1 -0.1)">
       <use xlink:href="#DejaVuSans-30"/>
       <use xlink:href="#DejaVuSans-2e" x="63.623047"/>
       <use xlink:href="#DejaVuSans-34" x="95.410156"/>
       <use xlink:href="#DejaVuSans-30" x="159.033203"/>
      </g>
     </g>
    </g>
    <g id="text_15">
     <!-- Density -->
     <g transform="translate(22.254687 193.536594)rotate(-90)scale(0.1 -0.1)">
      <defs>
       <path id="DejaVuSans-44" d="M 1259 4147 
L 1259 519 
L 2022 519 
Q 2988 519 3436 956 
Q 3884 1394 3884 2338 
Q 3884 3275 3436 3711 
Q 2988 4147 2022 4147 
L 1259 4147 
z
M 628 4666 
L 1925 4666 
Q 3281 4666 3915 4102 
Q 4550 3538 4550 2338 
Q 4550 1131 3912 565 
Q 3275 0 1925 0 
L 628 0 
L 628 4666 
z
" transform="scale(0.015625)"/>
       <path id="DejaVuSans-65" d="M 3597 1894 
L 3597 1613 
L 953 1613 
Q 991 1019 1311 708 
Q 1631 397 2203 397 
Q 2534 397 2845 478 
Q 3156 559 3463 722 
L 3463 178 
Q 3153 47 2828 -22 
Q 2503 -91 2169 -91 
Q 1331 -91 842 396 
Q 353 884 353 1716 
Q 353 2575 817 3079 
Q 1281 3584 2069 3584 
Q 2775 3584 3186 3129 
Q 3597 2675 3597 1894 
z
M 3022 2063 
Q 3016 2534 2758 2815 
Q 2500 3097 2075 3097 
Q 1594 3097 1305 2825 
Q 1016 2553 972 2059 
L 3022 2063 
z
" transform="scale(0.015625)"/>
       <path id="DejaVuSans-6e" d="M 3513 2113 
L 3513 0 
L 2938 0 
L 2938 2094 
Q 2938 2591 2744 2837 
Q 2550 3084 2163 3084 
Q 1697 3084 1428 2787 
Q 1159 2491 1159 1978 
L 1159 0 
L 581 0 
L 581 3500 
L 1159 3500 
L 1159 2956 
Q 1366 3272 1645 3428 
Q 1925 3584 2291 3584 
Q 2894 3584 3203 3211 
Q 3513 2838 3513 2113 
z
" transform="scale(0.015625)"/>
       <path id="DejaVuSans-73" d="M 2834 3397 
L 2834 2853 
Q 2591 2978 2328 3040 
Q 2066 3103 1784 3103 
Q 1356 3103 1142 2972 
Q 928 2841 928 2578 
Q 928 2378 1081 2264 
Q 1234 2150 1697 2047 
L 1894 2003 
Q 2506 1872 2764 1633 
Q 3022 1394 3022 966 
Q 3022 478 2636 193 
Q 2250 -91 1575 -91 
Q 1294 -91 989 -36 
Q 684 19 347 128 
L 347 722 
Q 666 556 975 473 
Q 1284 391 1588 391 
Q 1994 391 2212 530 
Q 2431 669 2431 922 
Q 2431 1156 2273 1281 
Q 2116 1406 1581 1522 
L 1381 1569 
Q 847 1681 609 1914 
Q 372 2147 372 2553 
Q 372 3047 722 3315 
Q 1072 3584 1716 3584 
Q 2034 3584 2315 3537 
Q 2597 3491 2834 3397 
z
" transform="scale(0.015625)"/>
       <path id="DejaVuSans-69" d="M 603 3500 
L 1178 3500 
L 1178 0 
L 603 0 
L 603 3500 
z
M 603 4863 
L 1178 4863 
L 1178 4134 
L 603 4134 
L 603 4863 
z
" transform="scale(0.015625)"/>
       <path id="DejaVuSans-74" d="M 1172 4494 
L 1172 3500 
L 2356 3500 
L 2356 3053 
L 1172 3053 
L 1172 1153 
Q 1172 725 1289 603 
Q 1406 481 1766 481 
L 2356 481 
L 2356 0 
L 1766 0 
Q 1100 0 847 248 
Q 594 497 594 1153 
L 594 3053 
L 172 3053 
L 172 3500 
L 594 3500 
L 594 4494 
L 1172 4494 
z
" transform="scale(0.015625)"/>
       <path id="DejaVuSans-79" d="M 2059 -325 
Q 1816 -950 1584 -1140 
Q 1353 -1331 966 -1331 
L 506 -1331 
L 506 -850 
L 844 -850 
Q 1081 -850 1212 -737 
Q 1344 -625 1503 -206 
L 1606 56 
L 191 3500 
L 800 3500 
L 1894 763 
L 2988 3500 
L 3597 3500 
L 2059 -325 
z
" transform="scale(0.015625)"/>
      </defs>
      <use xlink:href="#DejaVuSans-44"/>
      <use xlink:href="#DejaVuSans-65" x="77.001953"/>
      <use xlink:href="#DejaVuSans-6e" x="138.525391"/>
      <use xlink:href="#DejaVuSans-73" x="201.904297"/>
      <use xlink:href="#DejaVuSans-69" x="254.003906"/>
      <use xlink:href="#DejaVuSans-74" x="281.787109"/>
      <use xlink:href="#DejaVuSans-79" x="320.996094"/>
     </g>
    </g>
   </g>
   <g id="line2d_15">
    <path d="M 73.832727 307.580664 
L 83.621307 307.470479 
L 93.409886 307.262603 
L 103.198465 307.196423 
L 108.092755 306.949941 
L 112.987044 306.473742 
L 124.407053 304.954221 
L 130.932773 304.3531 
L 134.195633 303.838837 
L 137.458492 303.060368 
L 140.721352 301.945095 
L 143.984212 300.4121 
L 145.615642 299.460516 
L 147.247072 298.374619 
L 150.509931 295.80476 
L 153.772791 292.76614 
L 157.035651 289.320971 
L 160.298511 285.449884 
L 163.56137 281.09905 
L 166.82423 276.208545 
L 170.08709 270.66447 
L 173.34995 264.372344 
L 176.61281 257.441784 
L 181.507099 246.300862 
L 184.769959 238.11412 
L 186.401389 233.586371 
L 189.664249 223.482886 
L 192.927108 212.311028 
L 197.821398 195.357795 
L 201.084258 184.815977 
L 205.978547 169.316617 
L 207.609977 163.521008 
L 209.241407 157.059129 
L 210.872837 149.830486 
L 214.135697 133.476603 
L 217.398556 116.767321 
L 219.029986 109.296374 
L 220.661416 102.800234 
L 222.292846 97.354654 
L 223.924276 92.8677 
L 225.555706 89.142731 
L 227.187136 85.965156 
L 228.818566 83.178639 
L 230.449995 80.723115 
L 232.081425 78.624797 
L 233.712855 76.949329 
L 235.344285 75.744087 
L 236.975715 74.997666 
L 238.607145 74.633507 
L 240.238575 74.536771 
L 243.501434 74.754517 
L 245.132864 75.005135 
L 246.764294 75.406258 
L 248.395724 76.042609 
L 250.027154 76.994288 
L 251.658584 78.312651 
L 253.290014 80.015896 
L 254.921444 82.105442 
L 256.552873 84.593071 
L 258.184303 87.521211 
L 259.815733 90.960017 
L 261.447163 94.976391 
L 263.078593 99.586752 
L 266.341453 110.19806 
L 269.604312 121.266876 
L 272.867172 131.290408 
L 277.761462 144.606968 
L 281.024322 153.846694 
L 284.287181 163.992976 
L 289.181471 180.46123 
L 294.075761 197.207023 
L 297.33862 207.800459 
L 303.86434 228.569719 
L 310.390059 250.785193 
L 312.021489 255.860335 
L 313.652919 260.495909 
L 315.284349 264.658919 
L 316.915779 268.367417 
L 318.547209 271.665968 
L 320.178639 274.602143 
L 321.810069 277.214057 
L 323.441498 279.53116 
L 325.072928 281.583094 
L 326.704358 283.408194 
L 329.967218 286.574907 
L 333.230078 289.388464 
L 336.492937 291.971959 
L 339.755797 294.264789 
L 343.018657 296.280974 
L 347.912947 299.024466 
L 351.175806 300.678953 
L 354.438666 302.073472 
L 357.701526 303.156742 
L 362.595815 304.403269 
L 369.121535 305.84956 
L 372.384395 306.422645 
L 375.647254 306.837155 
L 380.541544 307.216449 
L 387.067264 307.476277 
L 395.224413 307.576189 
L 398.487273 307.582244 
L 398.487273 307.582244 
" clip-path="url(#pec5fcc09ff)" style="fill: none; stroke: #1f77b4; stroke-width: 1.5; stroke-linecap: square"/>
   </g>
   <g id="line2d_16">
    <path d="M 73.832727 307.571697 
L 96.672746 307.440189 
L 108.092755 307.153036 
L 114.618474 306.808332 
L 121.144194 306.227407 
L 126.038483 305.559342 
L 130.932773 304.610664 
L 134.195633 303.776751 
L 137.458492 302.743803 
L 140.721352 301.474587 
L 143.984212 299.927674 
L 147.247072 298.057663 
L 150.509931 295.815638 
L 153.772791 293.149868 
L 157.035651 290.006792 
L 160.298511 286.3323 
L 163.56137 282.073322 
L 166.82423 277.179707 
L 170.08709 271.606384 
L 173.34995 265.315736 
L 176.61281 258.28013 
L 179.875669 250.484519 
L 183.138529 241.928988 
L 186.401389 232.631146 
L 189.664249 222.628203 
L 192.927108 211.978598 
L 197.821398 194.97448 
L 202.715688 177.069714 
L 214.135697 134.632294 
L 217.398556 123.146813 
L 220.661416 112.304483 
L 223.924276 102.302667 
L 227.187136 93.331061 
L 228.818566 89.287303 
L 230.449995 85.565747 
L 232.081425 82.185335 
L 233.712855 79.163468 
L 235.344285 76.515855 
L 236.975715 74.256376 
L 238.607145 72.396963 
L 240.238575 70.947495 
L 241.870005 69.915708 
L 243.501434 69.307128 
L 245.132864 69.125024 
L 246.764294 69.370374 
L 248.395724 70.041859 
L 250.027154 71.135875 
L 251.658584 72.646565 
L 253.290014 74.56587 
L 254.921444 76.883602 
L 256.552873 79.587534 
L 258.184303 82.663507 
L 259.815733 86.095552 
L 261.447163 89.866031 
L 264.710023 98.344302 
L 267.972883 107.929797 
L 271.235742 118.437898 
L 274.498602 129.67378 
L 279.392892 147.456949 
L 292.444331 195.838067 
L 297.33862 212.787308 
L 300.60148 223.391541 
L 303.86434 233.344034 
L 307.1272 242.587959 
L 310.390059 251.087623 
L 313.652919 258.826788 
L 316.915779 265.806573 
L 320.178639 272.043046 
L 323.441498 277.564667 
L 326.704358 282.409691 
L 329.967218 286.623645 
L 333.230078 290.256964 
L 336.492937 293.362858 
L 339.755797 295.995446 
L 343.018657 298.208194 
L 346.281517 300.052656 
L 349.544376 301.577507 
L 352.807236 302.827867 
L 356.070096 303.844861 
L 359.332956 304.665406 
L 364.227245 305.5982 
L 369.121535 306.254502 
L 374.015825 306.70815 
L 380.541544 307.094391 
L 388.698693 307.356701 
L 398.487273 307.498691 
L 398.487273 307.498691 
" clip-path="url(#pec5fcc09ff)" style="fill: none; stroke: #282828; stroke-width: 1.5; stroke-linecap: square"/>
   </g>
   <g id="patch_103">
    <path d="M 57.6 307.584 
L 57.6 41.472 
" style="fill: none; stroke: #000000; stroke-width: 0.8; stroke-linejoin: miter; stroke-linecap: square"/>
   </g>
   <g id="patch_104">
    <path d="M 414.72 307.584 
L 414.72 41.472 
" style="fill: none; stroke: #000000; stroke-width: 0.8; stroke-linejoin: miter; stroke-linecap: square"/>
   </g>
   <g id="patch_105">
    <path d="M 57.6 307.584 
L 414.72 307.584 
" style="fill: none; stroke: #000000; stroke-width: 0.8; stroke-linejoin: miter; stroke-linecap: square"/>
   </g>
   <g id="patch_106">
    <path d="M 57.6 41.472 
L 414.72 41.472 
" style="fill: none; stroke: #000000; stroke-width: 0.8; stroke-linejoin: miter; stroke-linecap: square"/>
   </g>
   <g id="text_16">
    <!-- honest parameters -->
    <g transform="translate(179.005313 35.472)scale(0.12 -0.12)">
     <defs>
      <path id="DejaVuSans-68" d="M 3513 2113 
L 3513 0 
L 2938 0 
L 2938 2094 
Q 2938 2591 2744 2837 
Q 2550 3084 2163 3084 
Q 1697 3084 1428 2787 
Q 1159 2491 1159 1978 
L 1159 0 
L 581 0 
L 581 4863 
L 1159 4863 
L 1159 2956 
Q 1366 3272 1645 3428 
Q 1925 3584 2291 3584 
Q 2894 3584 3203 3211 
Q 3513 2838 3513 2113 
z
" transform="scale(0.015625)"/>
      <path id="DejaVuSans-6f" d="M 1959 3097 
Q 1497 3097 1228 2736 
Q 959 2375 959 1747 
Q 959 1119 1226 758 
Q 1494 397 1959 397 
Q 2419 397 2687 759 
Q 2956 1122 2956 1747 
Q 2956 2369 2687 2733 
Q 2419 3097 1959 3097 
z
M 1959 3584 
Q 2709 3584 3137 3096 
Q 3566 2609 3566 1747 
Q 3566 888 3137 398 
Q 2709 -91 1959 -91 
Q 1206 -91 779 398 
Q 353 888 353 1747 
Q 353 2609 779 3096 
Q 1206 3584 1959 3584 
z
" transform="scale(0.015625)"/>
      <path id="DejaVuSans-20" transform="scale(0.015625)"/>
      <path id="DejaVuSans-70" d="M 1159 525 
L 1159 -1331 
L 581 -1331 
L 581 3500 
L 1159 3500 
L 1159 2969 
Q 1341 3281 1617 3432 
Q 1894 3584 2278 3584 
Q 2916 3584 3314 3078 
Q 3713 2572 3713 1747 
Q 3713 922 3314 415 
Q 2916 -91 2278 -91 
Q 1894 -91 1617 61 
Q 1341 213 1159 525 
z
M 3116 1747 
Q 3116 2381 2855 2742 
Q 2594 3103 2138 3103 
Q 1681 3103 1420 2742 
Q 1159 2381 1159 1747 
Q 1159 1113 1420 752 
Q 1681 391 2138 391 
Q 2594 391 2855 752 
Q 3116 1113 3116 1747 
z
" transform="scale(0.015625)"/>
      <path id="DejaVuSans-61" d="M 2194 1759 
Q 1497 1759 1228 1600 
Q 959 1441 959 1056 
Q 959 750 1161 570 
Q 1363 391 1709 391 
Q 2188 391 2477 730 
Q 2766 1069 2766 1631 
L 2766 1759 
L 2194 1759 
z
M 3341 1997 
L 3341 0 
L 2766 0 
L 2766 531 
Q 2569 213 2275 61 
Q 1981 -91 1556 -91 
Q 1019 -91 701 211 
Q 384 513 384 1019 
Q 384 1609 779 1909 
Q 1175 2209 1959 2209 
L 2766 2209 
L 2766 2266 
Q 2766 2663 2505 2880 
Q 2244 3097 1772 3097 
Q 1472 3097 1187 3025 
Q 903 2953 641 2809 
L 641 3341 
Q 956 3463 1253 3523 
Q 1550 3584 1831 3584 
Q 2591 3584 2966 3190 
Q 3341 2797 3341 1997 
z
" transform="scale(0.015625)"/>
      <path id="DejaVuSans-72" d="M 2631 2963 
Q 2534 3019 2420 3045 
Q 2306 3072 2169 3072 
Q 1681 3072 1420 2755 
Q 1159 2438 1159 1844 
L 1159 0 
L 581 0 
L 581 3500 
L 1159 3500 
L 1159 2956 
Q 1341 3275 1631 3429 
Q 1922 3584 2338 3584 
Q 2397 3584 2469 3576 
Q 2541 3569 2628 3553 
L 2631 2963 
z
" transform="scale(0.015625)"/>
      <path id="DejaVuSans-6d" d="M 3328 2828 
Q 3544 3216 3844 3400 
Q 4144 3584 4550 3584 
Q 5097 3584 5394 3201 
Q 5691 2819 5691 2113 
L 5691 0 
L 5113 0 
L 5113 2094 
Q 5113 2597 4934 2840 
Q 4756 3084 4391 3084 
Q 3944 3084 3684 2787 
Q 3425 2491 3425 1978 
L 3425 0 
L 2847 0 
L 2847 2094 
Q 2847 2600 2669 2842 
Q 2491 3084 2119 3084 
Q 1678 3084 1418 2786 
Q 1159 2488 1159 1978 
L 1159 0 
L 581 0 
L 581 3500 
L 1159 3500 
L 1159 2956 
Q 1356 3278 1631 3431 
Q 1906 3584 2284 3584 
Q 2666 3584 2933 3390 
Q 3200 3197 3328 2828 
z
" transform="scale(0.015625)"/>
     </defs>
     <use xlink:href="#DejaVuSans-68"/>
     <use xlink:href="#DejaVuSans-6f" x="63.378906"/>
     <use xlink:href="#DejaVuSans-6e" x="124.560547"/>
     <use xlink:href="#DejaVuSans-65" x="187.939453"/>
     <use xlink:href="#DejaVuSans-73" x="249.462891"/>
     <use xlink:href="#DejaVuSans-74" x="301.5625"/>
     <use xlink:href="#DejaVuSans-20" x="340.771484"/>
     <use xlink:href="#DejaVuSans-70" x="372.558594"/>
     <use xlink:href="#DejaVuSans-61" x="436.035156"/>
     <use xlink:href="#DejaVuSans-72" x="497.314453"/>
     <use xlink:href="#DejaVuSans-61" x="538.427734"/>
     <use xlink:href="#DejaVuSans-6d" x="599.707031"/>
     <use xlink:href="#DejaVuSans-65" x="697.119141"/>
     <use xlink:href="#DejaVuSans-74" x="758.642578"/>
     <use xlink:href="#DejaVuSans-65" x="797.851562"/>
     <use xlink:href="#DejaVuSans-72" x="859.375"/>
     <use xlink:href="#DejaVuSans-73" x="900.488281"/>
    </g>
   </g>
  </g>
 </g>
 <defs>
  <clipPath id="pec5fcc09ff">
   <rect x="57.6" y="41.472" width="357.12" height="266.112"/>
  </clipPath>
 </defs>
</svg>
